<svg width="132" height="32" viewBox="0 0 132 32" fill="none" xmlns="http://www.w3.org/2000/svg">
                                <path d="M49.49 9.51998C50.5 10.26 51.13 11.26 51.39 12.52L49.06 13C48.93 12.23 48.56 11.61 47.95 11.14C47.34 10.67 46.6 10.43 45.73 10.43C44.86 10.43 44.19 10.64 43.66 11.05C43.14 11.46 42.88 12 42.88 12.65C42.88 13.16 43.03 13.56 43.33 13.85C43.63 14.14 44.09 14.35 44.73 14.48L47.89 15.15C50.38 15.7 51.63 17.03 51.63 19.13C51.63 20.49 51.12 21.58 50.1 22.38C49.08 23.19 47.73 23.59 46.04 23.59C44.35 23.59 43.07 23.21 41.95 22.45C40.83 21.69 40.19 20.63 40.01 19.26L42.49 18.74C42.66 19.65 43.09 20.35 43.75 20.82C44.42 21.29 45.25 21.53 46.25 21.53C47.25 21.53 47.96 21.32 48.5 20.91C49.04 20.5 49.32 19.95 49.32 19.27C49.32 18.72 49.16 18.3 48.85 18.01C48.54 17.72 48.01 17.49 47.27 17.34L44.09 16.69C41.64 16.12 40.41 14.8 40.41 12.73C40.41 11.44 40.9 10.4 41.88 9.60998C42.86 8.81998 44.15 8.41998 45.76 8.41998C47.22 8.41998 48.46 8.78998 49.47 9.52998L49.49 9.51998Z" fill="#363646"/>
                                <path d="M65.66 23.29H54.8V8.70996H65.64V10.82H57.13V14.93H64.98V17.02H57.13V21.18H65.66V23.29Z" fill="#363646"/>
                                <path d="M79.26 23.29H68.97V8.70996H71.3V21.18H79.26V23.29Z" fill="#363646"/>
                                <path d="M88.68 8.70996C90.28 8.70996 91.55 9.13996 92.5 9.99996C93.45 10.86 93.93 12 93.93 13.41C93.93 14.82 93.46 15.98 92.5 16.85C91.55 17.72 90.28 18.16 88.68 18.16H84.44V23.29H82.11V8.70996H88.68ZM88.68 16.02C89.58 16.02 90.29 15.78 90.81 15.31C91.33 14.84 91.59 14.2 91.59 13.41C91.59 12.62 91.33 12.02 90.81 11.54C90.29 11.06 89.58 10.82 88.68 10.82H84.44V16.02H88.68Z" fill="#363646"/>
                                <path d="M97.2 23.29V8.70996H99.53V23.29H97.2Z" fill="#363646"/>
                                <path d="M113.44 20.46C114.3 19.84 114.88 18.92 115.2 17.72L117.46 18.2C117.07 19.88 116.23 21.2 114.94 22.16C113.65 23.12 112.13 23.6 110.39 23.6C108.27 23.6 106.48 22.87 105.01 21.4C103.54 19.93 102.8 18.14 102.8 16C102.8 13.86 103.54 12.09 105.01 10.62C106.48 9.14997 108.28 8.40997 110.39 8.40997C112.12 8.40997 113.62 8.87997 114.92 9.81997C116.21 10.76 117.06 12.03 117.47 13.63L115.21 14.28C114.89 13.08 114.3 12.16 113.45 11.54C112.59 10.92 111.58 10.6 110.4 10.6C108.92 10.6 107.68 11.12 106.67 12.16C105.66 13.2 105.16 14.48 105.16 16C105.16 17.52 105.66 18.8 106.67 19.84C107.68 20.88 108.92 21.4 110.4 21.4C111.58 21.4 112.59 21.09 113.45 20.46H113.44Z" fill="#363646"/>
                                <path d="M129.38 9.50997C130.39 10.25 131.02 11.25 131.28 12.51L128.95 12.99C128.82 12.22 128.45 11.6 127.84 11.13C127.23 10.66 126.49 10.42 125.62 10.42C124.75 10.42 124.07 10.63 123.55 11.04C123.03 11.45 122.77 11.99 122.77 12.64C122.77 13.15 122.92 13.55 123.22 13.84C123.52 14.13 123.98 14.34 124.62 14.47L127.78 15.14C130.27 15.69 131.52 17.02 131.52 19.12C131.52 20.48 131.01 21.57 129.99 22.37C128.97 23.18 127.62 23.58 125.93 23.58C124.24 23.58 122.96 23.2 121.84 22.44C120.72 21.68 120.08 20.62 119.9 19.25L122.38 18.73C122.55 19.64 122.97 20.34 123.64 20.81C124.31 21.28 125.14 21.52 126.14 21.52C127.14 21.52 127.85 21.31 128.39 20.9C128.93 20.49 129.21 19.94 129.21 19.26C129.21 18.71 129.05 18.29 128.74 18C128.43 17.71 127.9 17.48 127.16 17.33L123.98 16.68C121.53 16.11 120.3 14.79 120.3 12.72C120.3 11.43 120.79 10.39 121.77 9.59997C122.75 8.80997 124.04 8.40997 125.65 8.40997C127.12 8.40997 128.35 8.77997 129.36 9.51997L129.38 9.50997Z" fill="#363646"/>
                                <path d="M32 16C32 24.84 24.84 32 16 32C7.16 32 0 24.84 0 16C0 7.16 7.16 0 16 0C24.84 0 32 7.16 32 16Z" fill="url(#paint0_linear_10_38)"/>
                                <path d="M14.48 22.33C14.34 22.47 14.14 22.56 13.93 22.56C13.72 22.56 13.53 22.48 13.38 22.33L9.03 17.98C8.58 17.53 8.58 16.8 9.03 16.34L9.57 15.79C10.02 15.34 10.75 15.34 11.21 15.79L13.93 18.51L21.27 11.17C21.72 10.72 22.45 10.72 22.91 11.17L23.45 11.71C23.9 12.16 23.9 12.89 23.45 13.34L14.47 22.32L14.48 22.33Z" fill="white"/>
                                <defs>
                                    <linearGradient id="paint0_linear_10_38" x1="16" y1="32" x2="16" y2="0" gradientUnits="userSpaceOnUse">
                                        <stop stop-color="#1C9CEA"/>
                                        <stop offset="1" stop-color="#49AFEE"/>
                                    </linearGradient>
                                </defs>
                            </svg>
