<svg width="126" height="32" viewBox="0 0 126 32" fill="none" xmlns="http://www.w3.org/2000/svg">
                                <path d="M32 16C32 24.84 24.84 32 16 32C7.16 32 0 24.84 0 16C0 7.16 7.16 0 16 0C24.84 0 32 7.16 32 16Z" fill="url(#paint0_linear_10_53)"/>
                                <path d="M14.48 22.33C14.34 22.47 14.14 22.56 13.93 22.56C13.72 22.56 13.53 22.48 13.38 22.33L9.03 17.98C8.58 17.53 8.58 16.8 9.03 16.34L9.57 15.79C10.02 15.34 10.75 15.34 11.21 15.79L13.93 18.51L21.27 11.17C21.72 10.72 22.45 10.72 22.91 11.17L23.45 11.71C23.9 12.16 23.9 12.89 23.45 13.34L14.47 22.32L14.48 22.33Z" fill="white"/>
                                <path d="M48.24 23.29H45.91V18.46L40.01 8.71002H42.6L47.08 16.02L51.54 8.71002H54.22L48.23 18.42V23.3L48.24 23.29Z" fill="#363646"/>
                                <path d="M62.94 13.84C64.05 14.89 64.61 16.25 64.61 17.9C64.61 19.55 64.05 20.91 62.93 21.97C61.81 23.03 60.45 23.56 58.84 23.56C57.23 23.56 55.84 23.03 54.72 21.97C53.6 20.91 53.03 19.55 53.03 17.9C53.03 16.25 53.59 14.89 54.72 13.84C55.84 12.79 57.22 12.26 58.84 12.26C60.46 12.26 61.83 12.79 62.94 13.84ZM61.34 20.57C62.05 19.88 62.41 18.99 62.41 17.9C62.41 16.81 62.05 15.92 61.34 15.23C60.63 14.54 59.79 14.2 58.84 14.2C57.89 14.2 57.01 14.54 56.3 15.23C55.6 15.92 55.24 16.81 55.24 17.9C55.24 18.99 55.59 19.88 56.3 20.57C57 21.26 57.85 21.6 58.84 21.6C59.83 21.6 60.63 21.26 61.34 20.57Z" fill="#363646"/>
                                <path d="M77.51 23.29H75.25V21.96C74.34 23.05 73.1 23.59 71.53 23.59C70.22 23.59 69.18 23.17 68.39 22.32C67.6 21.47 67.2 20.36 67.2 19V12.4901H69.46V18.54C69.46 19.43 69.7 20.14 70.17 20.68C70.64 21.22 71.27 21.5 72.05 21.5C73.05 21.5 73.83 21.16 74.4 20.48C74.97 19.8 75.25 18.8 75.25 17.48V12.5H77.51V23.3V23.29Z" fill="#363646"/>
                                <path d="M90.24 15.87C90.99 15.96 91.64 16.31 92.18 16.91C92.72 17.52 92.99 18.31 92.99 19.28C92.99 20.5 92.59 21.47 91.8 22.2C91.01 22.93 89.87 23.29 88.37 23.29H81.27V8.71002H88.21C89.53 8.71002 90.58 9.07002 91.37 9.79002C92.15 10.51 92.55 11.46 92.55 12.65C92.55 13.51 92.31 14.22 91.84 14.78C91.37 15.35 90.83 15.68 90.24 15.78V15.87ZM83.6 15.02H87.95C88.65 15.02 89.21 14.81 89.64 14.4C90.07 13.99 90.28 13.45 90.28 12.78C90.28 12.17 90.07 11.67 89.64 11.29C89.21 10.91 88.66 10.71 87.97 10.71H83.6V15.02ZM88.13 21.29C88.9 21.29 89.5 21.09 89.94 20.68C90.37 20.27 90.59 19.74 90.59 19.07C90.59 18.4 90.37 17.89 89.93 17.49C89.49 17.09 88.91 16.89 88.2 16.89H83.61V21.29H88.14H88.13Z" fill="#363646"/>
                                <path d="M108.38 10.63C109.85 12.11 110.59 13.91 110.59 16.03C110.59 18.15 109.85 19.94 108.38 21.41C106.91 22.88 105.1 23.61 102.97 23.61C100.84 23.61 99.04 22.88 97.57 21.41C96.1 19.94 95.37 18.15 95.37 16.03C95.37 13.91 96.1 12.09 97.57 10.62C99.04 9.15003 100.83 8.41003 102.97 8.41003C105.11 8.41003 106.91 9.15004 108.38 10.63ZM106.71 19.86C107.73 18.83 108.23 17.55 108.23 16.03C108.23 14.51 107.72 13.2 106.71 12.17C105.7 11.13 104.45 10.61 102.97 10.61C101.49 10.61 100.25 11.13 99.24 12.17C98.23 13.21 97.73 14.5 97.73 16.03C97.73 17.56 98.23 18.83 99.24 19.86C100.25 20.89 101.49 21.41 102.97 21.41C104.45 21.41 105.7 20.89 106.71 19.86Z" fill="#363646"/>
                                <path d="M118.46 17.5L114.56 23.29H111.71L116.67 15.98L111.75 8.71002H114.6L118.45 14.43L122.28 8.71002H125.13L120.19 15.98L125.17 23.29H122.32L118.45 17.5H118.46Z" fill="#363646"/>
                                <path d="M32 16C32 24.84 24.84 32 16 32C7.16 32 0 24.84 0 16C0 7.16 7.16 0 16 0C24.84 0 32 7.16 32 16Z" fill="url(#paint1_linear_10_53)"/>
                                <path d="M16.73 6.59998L8.95001 20.07L15.27 16.43V25.41L23.05 11.93L16.73 15.58V6.59998Z" fill="white"/>
                                <defs>
                                    <linearGradient id="paint0_linear_10_53" x1="0" y1="32" x2="1" y2="2.98023e-08" gradientUnits="userSpaceOnUse">
                                        <stop stop-color="#1C9CEA"/>
                                        <stop offset="1" stop-color="#49AFEE"/>
                                    </linearGradient>
                                    <linearGradient id="paint1_linear_10_53" x1="16" y1="32" x2="16" y2="0" gradientUnits="userSpaceOnUse">
                                        <stop stop-color="#14AFC6"/>
                                        <stop offset="1" stop-color="#43BFD1"/>
                                    </linearGradient>
                                </defs>
                            </svg>
