<svg width="21" height="20" viewBox="0 0 21 20" fill="none" xmlns="http://www.w3.org/2000/svg">
<path d="M6.43025 13.675H13.9864C14.7704 13.675 15.4459 13.4292 16.0131 12.9375C16.5802 12.4458 16.8638 11.825 16.8638 11.075C16.8638 10.325 16.5802 9.70833 16.0131 9.225C15.4459 8.74167 14.7704 8.5 13.9864 8.5C13.903 7.46667 13.511 6.57917 12.8104 5.8375C12.1099 5.09583 11.2425 4.725 10.2083 4.725C9.34095 4.725 8.55281 4.9625 7.8439 5.4375C7.13499 5.9125 6.66377 6.56667 6.43025 7.4C5.52951 7.4 4.76222 7.70417 4.12837 8.3125C3.49452 8.92083 3.17759 9.66667 3.17759 10.55C3.17759 11.4333 3.49452 12.175 4.12837 12.775C4.76222 13.375 5.52951 13.675 6.43025 13.675ZM10.0082 20C8.59034 20 7.2726 19.7458 6.05494 19.2375C4.83728 18.7292 3.77808 18.025 2.87735 17.125C1.97661 16.225 1.27187 15.1667 0.763122 13.95C0.254374 12.7333 0 11.4167 0 10C0 8.6 0.254374 7.29167 0.763122 6.075C1.27187 4.85833 1.97661 3.8 2.87735 2.9C3.77808 2 4.83728 1.29167 6.05494 0.775C7.2726 0.258333 8.59034 0 10.0082 0C11.4093 0 12.7187 0.258333 13.9364 0.775C15.154 1.29167 16.2132 2 17.114 2.9C18.0147 3.8 18.7236 4.85833 19.2407 6.075C19.7578 7.29167 20.0163 8.6 20.0163 10C20.0163 11.4167 19.7578 12.7333 19.2407 13.95C18.7236 15.1667 18.0147 16.225 17.114 17.125C16.2132 18.025 15.154 18.7292 13.9364 19.2375C12.7187 19.7458 11.4093 20 10.0082 20Z" fill="#363646"/>
</svg>
