<svg width="20" height="20" viewBox="0 0 20 20" fill="none" xmlns="http://www.w3.org/2000/svg">
<mask id="mask0_83_304" style="mask-type:alpha" maskUnits="userSpaceOnUse" x="0" y="0" width="20" height="20">
<rect width="20" height="20" fill="#FD8D18"/>
</mask>
<g mask="url(#mask0_83_304)">
<path d="M10 15C10.2333 15 10.4292 14.9208 10.5875 14.7625C10.7458 14.6042 10.825 14.4083 10.825 14.175C10.825 13.9417 10.7458 13.7458 10.5875 13.5875C10.4292 13.4292 10.2333 13.35 10 13.35C9.76667 13.35 9.57083 13.4292 9.4125 13.5875C9.25417 13.7458 9.175 13.9417 9.175 14.175C9.175 14.4083 9.25417 14.6042 9.4125 14.7625C9.57083 14.9208 9.76667 15 10 15ZM9.325 11.175H10.825V4.85H9.325V11.175ZM10 20C8.63333 20 7.34167 19.7375 6.125 19.2125C4.90833 18.6875 3.84583 17.9708 2.9375 17.0625C2.02917 16.1542 1.3125 15.0917 0.7875 13.875C0.2625 12.6583 0 11.3583 0 9.975C0 8.60833 0.2625 7.31667 0.7875 6.1C1.3125 4.88333 2.02917 3.825 2.9375 2.925C3.84583 2.025 4.90833 1.3125 6.125 0.7875C7.34167 0.2625 8.64167 0 10.025 0C11.3917 0 12.6833 0.2625 13.9 0.7875C15.1167 1.3125 16.175 2.025 17.075 2.925C17.975 3.825 18.6875 4.88333 19.2125 6.1C19.7375 7.31667 20 8.61667 20 10C20 11.3667 19.7375 12.6583 19.2125 13.875C18.6875 15.0917 17.975 16.1542 17.075 17.0625C16.175 17.9708 15.1167 18.6875 13.9 19.2125C12.6833 19.7375 11.3833 20 10 20Z" fill="#FD8D18"/>
</g>
</svg>
