<svg xmlns="http://www.w3.org/2000/svg" width="16" height="16" viewBox="0 0 16 16" fill="none">
  <mask id="mask0_817_310" style="mask-type:alpha" maskUnits="userSpaceOnUse" x="0" y="0" width="16" height="16">
    <rect width="16" height="16" fill="#363646"/>
  </mask>
  <g mask="url(#mask0_817_310)">
    <path d="M8 15C6.06042 15 4.40885 14.3182 3.04531 12.9547C1.68177 11.5911 1 9.93958 1 8C1 6.06042 1.68177 4.40885 3.04531 3.04531C4.40885 1.68177 6.06042 1 8 1C9.23958 1 10.326 1.25156 11.2594 1.75469C12.1927 2.25781 13.0021 2.94688 13.6875 3.82188V1H15V6.55625H9.44375V5.24375H13.1188C12.5646 4.36875 11.8573 3.66146 10.9969 3.12187C10.1365 2.58229 9.1375 2.3125 8 2.3125C6.41042 2.3125 5.0651 2.86302 3.96406 3.96406C2.86302 5.0651 2.3125 6.41042 2.3125 8C2.3125 9.58958 2.86302 10.9349 3.96406 12.0359C5.0651 13.137 6.41042 13.6875 8 13.6875C9.21042 13.6875 10.3188 13.3411 11.325 12.6484C12.3313 11.9557 13.0312 11.0406 13.425 9.90312H14.7812C14.3583 11.4344 13.5198 12.6667 12.2656 13.6C11.0115 14.5333 9.58958 15 8 15Z" fill="#363646"/>
  </g>
</svg>