<svg xmlns="http://www.w3.org/2000/svg" width="24" height="18" viewBox="0 0 24 18" fill="none">
  <path d="M11.1818 17.7136H5.75455C4.15455 17.7136 2.79545 17.1546 1.67727 16.0364C0.559091 14.9182 0 13.5591 0 11.9591C0 10.5409 0.454545 9.29547 1.36364 8.22274C2.27273 7.15001 3.42727 6.50456 4.82727 6.28638C5.19091 4.52274 6.04545 3.08183 7.39091 1.96365C8.73636 0.845469 10.2909 0.286377 12.0545 0.286377C14.0909 0.286377 15.8091 1.02729 17.2091 2.5091C18.6091 3.99092 19.3091 5.7682 19.3091 7.84092V8.49547C20.6182 8.4591 21.7273 8.88183 22.6364 9.76365C23.5455 10.6455 24 11.7591 24 13.1046C24 14.3591 23.5455 15.4409 22.6364 16.35C21.7273 17.2591 20.6455 17.7136 19.3909 17.7136H12.8182V9.04092L15.0818 11.3046L16.2545 10.1318L12 5.87729L7.74546 10.1318L8.91818 11.3046L11.1818 9.04092V17.7136Z" fill="white"/>
</svg>