<svg width="51" height="51" viewBox="0 0 51 51" fill="none" xmlns="http://www.w3.org/2000/svg">
<path d="M25.3312 24.7318C18.8334 24.9231 13.4086 19.7036 13.2211 13.0672C13.2132 12.8351 13.2132 12.603 13.2211 12.3669C13.0337 5.73051 18.1513 0.197467 24.6531 0.00610894C24.8805 -0.00203631 25.1078 -0.00203631 25.3312 0.00610894C31.833 -0.185249 37.2578 5.03837 37.4453 11.6748C37.4533 11.9068 37.4533 12.1348 37.4453 12.3669C37.6328 19.0033 32.5191 24.5404 26.0173 24.7318C25.7899 24.7399 25.5626 24.7399 25.3312 24.7318ZM0.00217092 50.6667V42.589C-0.0377157 40.7406 0.472851 38.9247 1.46607 37.3776C2.41541 35.92 3.74369 34.7556 5.30333 34.0227C8.55023 32.4756 11.9288 31.246 15.399 30.3503C18.6499 29.5198 21.9846 29.0963 25.3312 29.0963C28.6699 29.0963 31.9926 29.5157 35.2275 30.3463C38.7058 31.2583 42.0963 32.4878 45.3591 34.0227C46.9188 34.7556 48.247 35.916 49.1964 37.3735C50.1936 38.9207 50.7041 40.7406 50.6643 42.589V50.6667H0.00217092Z" fill="white"/>
</svg>
